PathFileType	4	(X/Y/Z)	/Users/mathieubourgeois/Desktop/Analyse/Traitement/Sujet_01/Data/Transformed_Sujet_01_velo_60.trc
DataRate	CameraRate	NumFrames	NumMarkers	Units	OrigDataRate	OrigDataStartFrame	OrigNumFrames
120.000000	120.000000	4	36	mm	120.000000	1206	1931
Frame#	Time	C7			RFHD			LFHD			RBHD			LBHD			RSHO			LSHO			CLAV			STRN			T10			RBWT			LBWT			RFWT			LFWT			RRAD			RWRA			RWRB			RCAR			RHUM			LHUM			LRAD			LWRA			LWRB			LCAR			RKNI			RKNE			LKNI			LKNE			RANE			RANI			RTOE			RHEE			LTOE			LANI			LANE			LHEE			
		X1	Y1	Z1	X2	Y2	Z2	X3	Y3	Z3	X4	Y4	Z4	X5	Y5	Z5	X6	Y6	Z6	X7	Y7	Z7	X8	Y8	Z8	X9	Y9	Z9	X10	Y10	Z10	X11	Y11	Z11	X12	Y12	Z12	X13	Y13	Z13	X14	Y14	Z14	X15	Y15	Z15	X16	Y16	Z16	X17	Y17	Z17	X18	Y18	Z18	X19	Y19	Z19	X20	Y20	Z20	X21	Y21	Z21	X22	Y22	Z22	X23	Y23	Z23	X24	Y24	Z24	X25	Y25	Z25	X26	Y26	Z26	X27	Y27	Z27	X28	Y28	Z28	X29	Y29	Z29	X30	Y30	Z30	X31	Y31	Z31	X32	Y32	Z32	X33	Y33	Z33	X34	Y34	Z34	X35	Y35	Z35	X36	Y36	Z36	

1207	10.05	-31.35261917114261	1467.676025390625	249.5444335937499	35.71486663818355	1579.030395507812	376.5949401855468	144.4537048339843	1554.273681640625	319.2339477539061	-43.00428009033206	1565.18994140625	247.9454345703124	66.59419250488278	1535.695556640625	180.4829101562499	-15.01644039154057	1394.682373046875	354.0369873046874	-15.67132091522218	1389.82080078125	128.0212860107421	5.630953311920135	1341.512084960938	251.3499908447265	-40.88446426391604	1233.64111328125	250.0506744384765	-231.181884765625	1380.33203125	252.1053771972655	-414.6142272949219	1111.689575195312	321.2296447753905	-417.7113952636719	1100.7568359375	201.2141723632811	-241.0188446044922	1077.7470703125	372.4589538574218	-238.3757934570313	1071.397827148438	148.7469940185546	92.23546600341791	1138.588623046875	451.0931701660156	298.4908447265624	1028.170288085938	389.5981750488281	325.0822753906249	1047.806762695312	447.04541015625	401.1197814941406	1034.572998046875	376.0367736816406	141.8539276123046	1178.57568359375	473.7898559570312	154.5428619384766	1178.693969726562	44.65007019042964	102.6692810058594	1145.087524414062	67.03260040283197	322.2063903808594	1042.938110351562	131.8206176757812	343.3309326171875	1055.303588867188	69.02037811279294	408.1115112304688	1037.332397460938	137.5269775390625	-61.94880676269536	754.0643920898438	346.1119079589843	-54.07290649414068	783.4336547851562	466.5516357421874	-9.173014640808132	759.0475463867188	212.7730407714843	-22.35056495666505	739.6289672851562	89.71291351318355	-287.3830566406251	542.4637451171875	423.5154418945311	-261.2957763671876	528.151123046875	345.9403686523436	-179.2687377929688	382.1369018554688	431.0548400878906	-358.3322143554688	541.3766479492188	370.1807250976561	133.661636352539	356.2227172851562	139.4407501220703	-46.2356643676758	402.5001831054688	185.4231567382812	-57.45552825927736	396.8142395019531	108.3495712280273	-119.9207077026367	340.7540588378906	151.5903320312499	
1208	10.05833333333333	-31.13889312744144	1467.93994140625	249.9816436767577	35.97490692138668	1579.272583007812	377.0874633789061	144.6720428466797	1554.741943359375	319.4950866699218	-42.9029235839844	1565.538452148438	248.4808197021484	66.60959625244138	1536.291015625	180.8140716552734	-14.66497611999516	1394.9501953125	354.5424499511718	-15.46233367919923	1390.126220703125	128.399200439453	6.040904045104949	1341.83837890625	251.5760803222655	-40.23835372924808	1233.85400390625	250.4200439453124	-230.7718353271485	1380.319213867188	252.5319671630858	-414.4228210449219	1112.084838867188	321.0961914062499	-417.3897399902344	1101.13427734375	201.1056365966796	-241.0187530517579	1077.842407226562	372.4864196777343	-238.0681915283203	1071.131713867188	148.7878112792968	92.46465301513666	1138.774536132812	451.4870910644531	298.5477905273437	1028.391845703125	389.6336669921875	325.1568298339843	1047.833618164062	447.1039733886719	401.1140136718749	1034.497680664062	376.0334167480469	142.1156768798828	1178.711059570312	474.1986694335937	154.6371765136719	1178.802001953125	44.69988632202143	102.7801742553711	1145.21044921875	67.14788055419916	322.2521362304688	1042.948364257812	131.795166015625	343.3912658691406	1055.299072265625	69.00866699218747	408.1368103027344	1037.318359375	137.5305023193359	-57.57292938232426	761.931640625	346.8832092285156	-49.02165603637701	790.4072265625	467.3076477050781	-13.510217666626	750.7671508789062	212.8482360839843	-28.42797470092775	731.0176391601562	89.98878479003902	-284.4006652832032	551.8594360351562	423.5647888183593	-258.4068908691407	537.46875	345.9356079101561	-176.7088012695313	390.9671325683594	430.2101440429688	-355.5489807128907	550.9576416015625	370.2310180664061	131.7572631835937	347.1048278808594	139.4313659667969	-49.05115890502932	393.4358825683594	185.0676574707031	-60.26635742187501	387.7695007324219	108.2265396118164	-122.2398300170899	332.1868591308594	151.3774871826171	
1209	10.06666666666667	-30.94730567932132	1468.173583984375	250.3751831054687	36.25584030151362	1579.571655273438	377.4815673828124	144.8610229492187	1555.201171875	319.7640380859374	-42.87178039550784	1565.914794921875	249.0670166015624	66.61318206787107	1536.876098632812	181.1520385742187	-14.30377006530766	1395.229248046875	354.9879150390624	-15.28025150299074	1390.353393554688	128.8187103271484	6.450331687927215	1342.201049804688	251.9347839355468	-39.66337203979495	1234.06982421875	250.7559967041015	-230.4242095947266	1380.28564453125	252.9496612548827	-414.1911315917969	1112.4443359375	320.9821166992186	-417.0635986328125	1101.478271484375	200.9983978271483	-241.0028991699219	1077.880004882812	372.5604248046874	-237.7790985107422	1070.845825195312	148.8600006103515	92.63007354736322	1138.955322265625	451.9619445800781	298.5657348632812	1028.594848632812	389.7154846191406	325.2459716796874	1047.880981445312	447.1408386230469	401.1415405273437	1034.262084960938	375.8815307617188	142.3477935791015	1178.85595703125	474.5135498046874	154.7349548339844	1178.9130859375	44.78617858886714	102.8881072998047	1145.337890625	67.26500701904291	322.3046875	1042.948364257812	131.7926177978515	343.4584045410156	1055.308837890625	68.99030303955075	408.1642150878906	1037.301879882812	137.5106658935547	-53.05998229980473	769.8353271484375	347.7050170898437	-44.77812957763678	798.056640625	468.2914733886718	-22.48558425903323	741.59765625	213.4381713867187	-34.74578857421876	722.578857421875	90.25897216796871	-281.2121276855469	561.0725708007812	423.6823425292968	-255.2442932128907	546.6622314453125	345.9947509765624	-173.6327209472657	400.1531066894531	430.0852966308594	-352.5752258300782	560.188720703125	370.3689575195311	128.4071960449218	337.1895141601562	139.0235443115234	-51.89139938354494	384.674072265625	184.8255920410156	-62.86973190307619	379.4224853515625	107.7591323852539	-125.1290512084961	324.40283203125	151.0351257324218	
1210	10.075	-30.79847335815433	1468.423217773438	250.776870727539	36.53005218505854	1579.872192382812	377.9186706542968	145.0332489013672	1555.611083984375	319.9859008789061	-42.78693389892581	1566.302734375	249.5143432617187	66.60329437255857	1537.350219726562	181.5279998779296	-14.00247764587407	1395.5458984375	355.510528564453	-15.11575317382814	1390.579345703125	129.1906738281249	6.800574302673309	1342.531372070312	252.2450256347655	-38.92069625854495	1234.30810546875	251.1370391845702	-230.060302734375	1380.21630859375	253.3919525146483	-413.9744567871094	1112.762939453125	320.9005126953124	-416.7466735839844	1101.793701171875	200.9794921874999	-240.9846954345704	1077.917724609375	372.6883239746093	-237.4743194580078	1070.491821289062	148.987564086914	92.82124328613276	1139.17333984375	452.3257446289062	298.5087890624999	1027.881713867188	389.5093078613281	325.3197021484374	1047.924072265625	447.16455078125	401.1777954101562	1033.497802734375	375.2688903808594	142.5844726562499	1179.049682617188	474.8191528320312	154.8207550048828	1179.066040039062	44.86865997314448	102.9777755737305	1145.472778320312	67.37325286865229	322.351806640625	1042.9736328125	131.7770690917968	343.51416015625	1055.33251953125	68.96920776367185	408.1672058105469	1037.291015625	137.5014495849609	-48.64486694335942	777.7568969726562	348.4555358886718	-40.90876007080084	805.7313842773438	469.9309997558593	-29.01593971252444	733.2263793945312	213.6690826416015	-41.22002410888673	714.3736572265625	90.61733245849605	-277.8354492187501	570.0623168945312	423.8596191406249	-251.9833068847657	555.6775512695312	346.1434936523436	-170.1066894531251	409.3655395507812	430.0943603515625	-349.4322814941407	569.0798950195312	370.6236267089843	125.2741165161133	327.8091125488281	138.7974395751953	-55.03947067260744	376.2384948730469	184.6141357421875	-65.88580322265626	371.2268676757812	107.5632858276367	-128.461654663086	317.0097045898438	150.7844543457031	
